<svg width="48" height="48" viewBox="0 0 48 48" fill="none" xmlns="http://www.w3.org/2000/svg">
<path d="M31 6H18V16H31C32.103 16 33 16.897 33 18C33 19.103 32.103 20 31 20H18V30H31C37.617 30 43 24.617 43 18C43 11.383 37.617 6 31 6Z" fill="#78909C"/>
<path d="M37.581 34.257C31.636 32.275 27.02 27.861 23.472 20.764C22.438 18.695 20.165 17.677 18 18.121V31.087C22.346 37.3 27.844 41.552 34.419 43.743C34.943 43.918 35.477 44.001 36.001 44.001C38.094 44.001 40.045 42.676 40.743 40.581C41.616 37.962 40.201 35.13 37.581 34.257Z" fill="#78909C"/>
<path d="M28 14C29.1046 14 30 13.1046 30 12C30 10.8954 29.1046 10 28 10C26.8954 10 26 10.8954 26 12C26 13.1046 26.8954 14 28 14Z" fill="white"/>
<path d="M29 13C29.5523 13 30 12.5523 30 12C30 11.4477 29.5523 11 29 11C28.4477 11 28 11.4477 28 12C28 12.5523 28.4477 13 29 13Z" fill="#212121"/>
<path d="M36 14C37.1046 14 38 13.1046 38 12C38 10.8954 37.1046 10 36 10C34.8954 10 34 10.8954 34 12C34 13.1046 34.8954 14 36 14Z" fill="white"/>
<path d="M37 13C37.5523 13 38 12.5523 38 12C38 11.4477 37.5523 11 37 11C36.4477 11 36 11.4477 36 12C36 12.5523 36.4477 13 37 13Z" fill="#212121"/>
<path d="M19 44C16.239 44 14 41.762 14 39V11C14 8.238 16.239 6 19 6C21.761 6 24 8.238 24 11V39C24 41.762 21.761 44 19 44Z" fill="#78909C"/>
<path d="M36 14H23V24H36V14Z" fill="#78909C"/>
<path d="M31 19V25H33V19H31Z" fill="#546E7A"/>
<path d="M32 20C33.6569 20 35 18.8807 35 17.5C35 16.1193 33.6569 15 32 15C30.3431 15 29 16.1193 29 17.5C29 18.8807 30.3431 20 32 20Z" fill="#FF9E80"/>
<path d="M32 26C30.979 26 28.586 26 26.293 23.707L27.707 22.293C29.414 24 31.097 24 32 24V26Z" fill="#546E7A"/>
<path d="M32 26V24C32.903 24 34.586 24 36.293 22.293L37.707 23.707C35.414 26 33.021 26 32 26Z" fill="#546E7A"/>
<path d="M8.795 21.209C6.978 20.13 6.38 17.783 7.459 15.966C9.683 12.222 14.509 6.845 19.354 5.61C21.292 5.116 23.364 5.734 23.559 6.838C20.781 5.06 16.426 14.477 14.038 19.873C12.959 21.69 10.611 22.288 8.795 21.209Z" fill="#546E7A"/>
<path d="M2.727 8.206C2.089 6.191 3.205 4.041 5.219 3.404C9.371 2.09 16.551 1.289 20.989 3.593C22.764 4.514 23.899 6.355 23.31 7.308C22.42 4.132 12.902 8.261 7.529 10.699C5.514 11.336 3.364 10.22 2.727 8.206Z" fill="#78909C"/>
<path d="M39.78 42.252C39.128 41.492 38.203 40.722 36.825 40.158L36.067 42.008C37.058 42.414 37.726 42.946 38.205 43.484C38.805 43.189 39.336 42.766 39.78 42.252Z" fill="#546E7A"/>
<path d="M37.684 38.295C39.396 38.997 40.175 40.07 40.604 40.91C40.65 40.8 40.706 40.696 40.744 40.581C41.033 39.714 41.05 38.829 40.877 37.994C40.27 37.423 39.489 36.873 38.442 36.445L37.684 38.295Z" fill="#546E7A"/>
<path d="M23.961 39.385L23.92 37.681L20.377 34.186C20.377 34.186 20.962 37.729 23.692 40.672C23.838 40.264 23.926 39.834 23.961 39.385Z" fill="#546E7A"/>
</svg>
